# xmcd
#
# Track frame offsets: 
#        150
#        23516
#        39159
#        50781
#        75009
#        91732
#        101323
#        112773
#        126060
#        145785
#        161009
#        172977
#
# Disc length: 2523 seconds
#
# Revision: 0
# Processed by: cddbd v1.5.2PL0 Copyright (c) Steve Scherf et al.
# Submitted via: ExactAudioCopyFreeDBPlugin 1.0
#
DISCID=7909d90c
DTITLE=Arthur Migliazza - Bumble Boogie
DYEAR=1900
DGENRE=
TTITLE0=Bumble Boogie
TTITLE1=Chicago Breakdown
TTITLE2=My Kind of Gal
TTITLE3=St. Louis Blues
TTITLE4=After Hours
TTITLE5=So Miserable Without You
TTITLE6=Yancey Stomp
TTITLE7=Blueberry Hill
TTITLE8=Boogie Woogie Stomp
TTITLE9=Honky Tonk Train Blues
TTITLE10=Georgia on My Mind
TTITLE11=Clarence's Blues
EXTD=
EXTT0=
EXTT1=
EXTT2=
EXTT3=
EXTT4=
EXTT5=
EXTT6=
EXTT7=
EXTT8=
EXTT9=
EXTT10=
EXTT11=
PLAYORDER=
